<svg width="82" height="17" viewBox="0 0 82 17" fill="none" xmlns="http://www.w3.org/2000/svg">
<path d="M0.48 16V14.08H1.74L6.7 2.36H10.18L15.14 14.08H16.4V16H9.16V14.08H11.06L7.1 4.46H8.3L4.26 14.08H6.16V16H0.48ZM4.58 12.14V10.14H10.92V12.14H4.58ZM22.1258 16.2C21.1791 16.2 20.3458 15.9867 19.6258 15.56C18.9058 15.1333 18.3391 14.5133 17.9258 13.7C17.5258 12.8867 17.3258 11.8933 17.3258 10.72C17.3258 9.54667 17.5258 8.55333 17.9258 7.74C18.3391 6.92667 18.9058 6.30667 19.6258 5.88C20.3458 5.45333 21.1724 5.24 22.1058 5.24C23.0924 5.24 23.8658 5.46 24.4258 5.9C24.9991 6.34 25.4058 6.96667 25.6458 7.78C25.8858 8.59333 26.0058 9.56667 26.0058 10.7L26.2658 10.74C26.2658 11.8467 26.1258 12.8133 25.8458 13.64C25.5658 14.4533 25.1191 15.0867 24.5058 15.54C23.9058 15.98 23.1124 16.2 22.1258 16.2ZM23.4258 13.9C23.8924 13.9 24.2924 13.78 24.6258 13.54C24.9591 13.3 25.2124 12.9467 25.3858 12.48C25.5591 12 25.6458 11.4133 25.6458 10.72C25.6458 10.0267 25.5591 9.44667 25.3858 8.98C25.2124 8.5 24.9591 8.14 24.6258 7.9C24.2924 7.66 23.8924 7.54 23.4258 7.54C22.9724 7.54 22.5791 7.66 22.2458 7.9C21.9258 8.14 21.6791 8.5 21.5058 8.98C21.3324 9.44667 21.2458 10.0267 21.2458 10.72C21.2458 11.4133 21.3324 12 21.5058 12.48C21.6791 12.9467 21.9258 13.3 22.2458 13.54C22.5791 13.78 22.9724 13.9 23.4258 13.9ZM25.7458 16V13.46L25.9458 10.72L25.4658 8.38V3.54H24.2058V1.66H29.1058V14.12H30.3658V16H25.7458ZM31.6766 16V14.12H33.1366V7.32H31.8166V5.44H36.7366V14.12H37.9966V16H31.6766ZM34.8166 4.68C34.1632 4.68 33.6299 4.50667 33.2166 4.16C32.8032 3.81333 32.5966 3.33333 32.5966 2.72C32.5966 2.10667 32.8032 1.62667 33.2166 1.28C33.6299 0.933333 34.1632 0.76 34.8166 0.76C35.4699 0.76 35.9966 0.933333 36.3966 1.28C36.8099 1.62667 37.0166 2.10667 37.0166 2.72C37.0166 3.33333 36.8099 3.81333 36.3966 4.16C35.9966 4.50667 35.4699 4.68 34.8166 4.68ZM46.7133 16V14.12H47.6133V9.06C47.6133 8.59333 47.4799 8.24667 47.2133 8.02C46.9466 7.79333 46.5799 7.68 46.1133 7.68C45.8066 7.68 45.5199 7.74 45.2533 7.86C44.9999 7.96667 44.7933 8.15333 44.6333 8.42C44.4866 8.67333 44.4133 9.02667 44.4133 9.48L43.8133 9.5C43.8133 8.64667 43.9199 7.90667 44.1333 7.28C44.3466 6.64 44.7199 6.14667 45.2533 5.8C45.7999 5.45333 46.5733 5.28 47.5733 5.28C48.6533 5.28 49.5266 5.57333 50.1933 6.16C50.8733 6.74667 51.2133 7.68 51.2133 8.96V14.12H52.2733V16H46.7133ZM39.3133 16V14.12H40.7733V7.32H39.4533V5.44H43.9733V9.02L44.4133 8.96V14.12H45.3133V16H39.3133ZM58.5906 16.2C57.644 16.2 56.8106 15.9867 56.0906 15.56C55.3706 15.1333 54.804 14.5133 54.3906 13.7C53.9906 12.8867 53.7906 11.8933 53.7906 10.72C53.7906 9.54667 53.9906 8.55333 54.3906 7.74C54.804 6.92667 55.3706 6.30667 56.0906 5.88C56.8106 5.45333 57.6373 5.24 58.5706 5.24C59.5573 5.24 60.3306 5.46 60.8906 5.9C61.464 6.34 61.8706 6.96667 62.1106 7.78C62.3506 8.59333 62.4706 9.56667 62.4706 10.7L62.7306 10.74C62.7306 11.8467 62.5906 12.8133 62.3106 13.64C62.0306 14.4533 61.584 15.0867 60.9706 15.54C60.3706 15.98 59.5773 16.2 58.5906 16.2ZM59.8906 13.9C60.3573 13.9 60.7573 13.78 61.0906 13.54C61.424 13.3 61.6773 12.9467 61.8506 12.48C62.024 12 62.1106 11.4133 62.1106 10.72C62.1106 10.0267 62.024 9.44667 61.8506 8.98C61.6773 8.5 61.424 8.14 61.0906 7.9C60.7573 7.66 60.3573 7.54 59.8906 7.54C59.4373 7.54 59.044 7.66 58.7106 7.9C58.3906 8.14 58.144 8.5 57.9706 8.98C57.7973 9.44667 57.7106 10.0267 57.7106 10.72C57.7106 11.4133 57.7973 12 57.9706 12.48C58.144 12.9467 58.3906 13.3 58.7106 13.54C59.044 13.78 59.4373 13.9 59.8906 13.9ZM62.2106 16V13.46L62.4106 10.72L61.9306 8.38V3.54H60.6706V1.66H65.5706V14.12H66.8306V16H62.2106ZM71.2014 9.32C70.6681 9.32 70.1947 9.18667 69.7814 8.92C69.3814 8.64 69.1814 8.21333 69.1814 7.64C69.1814 7.12 69.4081 6.68 69.8614 6.32C70.3147 5.96 70.9147 5.69333 71.6614 5.52C72.4081 5.33333 73.1947 5.24 74.0214 5.24C75.4081 5.24 76.4681 5.52 77.2014 6.08C77.9481 6.64 78.3147 7.48 78.3014 8.6L74.9214 8.2C74.9214 7.74667 74.7614 7.42 74.4414 7.22C74.1347 7.00667 73.7281 6.9 73.2214 6.9C72.8881 6.9 72.5614 6.94 72.2414 7.02C71.9347 7.1 71.6681 7.23333 71.4414 7.42C71.2281 7.60667 71.0881 7.86667 71.0214 8.2L71.1014 6.56C71.6747 6.58667 72.1281 6.70667 72.4614 6.92C72.7947 7.13333 72.9547 7.46 72.9414 7.9C72.9281 8.31333 72.7681 8.65333 72.4614 8.92C72.1681 9.18667 71.7481 9.32 71.2014 9.32ZM78.6814 16.26C77.5614 16.26 76.7147 15.9667 76.1414 15.38C75.5681 14.78 75.2814 13.9467 75.2814 12.88V12.56H74.8814V10.28H74.7814L74.9214 9.16V8.2L78.3014 8.6V13.22C78.3014 13.46 78.3614 13.66 78.4814 13.82C78.6147 13.9667 78.7947 14.04 79.0214 14.04C79.2614 14.04 79.4414 13.9667 79.5614 13.82C79.6814 13.66 79.7414 13.46 79.7414 13.22V10.34H81.9814V12.94C81.9814 13.9533 81.7081 14.76 81.1614 15.36C80.6147 15.96 79.7881 16.26 78.6814 16.26ZM71.7614 16.22C70.7081 16.22 69.8547 15.9667 69.2014 15.46C68.5481 14.94 68.2214 14.24 68.2214 13.36C68.2214 12.7333 68.3547 12.2133 68.6214 11.8C68.8881 11.3733 69.2614 11.0267 69.7414 10.76C70.2347 10.48 70.7947 10.26 71.4214 10.1L73.3214 9.62C73.6814 9.52667 73.9814 9.42 74.2214 9.3C74.4614 9.18 74.6347 9.03333 74.7414 8.86C74.8614 8.68667 74.9214 8.46667 74.9214 8.2L74.9614 10.28H74.8814C74.7881 10.4933 74.6481 10.66 74.4614 10.78C74.2747 10.9 74.0347 11.0133 73.7414 11.12L73.3614 11.26C73.0681 11.3667 72.8147 11.48 72.6014 11.6C72.3881 11.7067 72.2214 11.84 72.1014 12C71.9947 12.1467 71.9414 12.3467 71.9414 12.6C71.9414 12.9467 72.0614 13.2133 72.3014 13.4C72.5414 13.5733 72.8614 13.66 73.2614 13.66C73.5281 13.66 73.7814 13.6067 74.0214 13.5C74.2747 13.38 74.4814 13.1867 74.6414 12.92C74.8014 12.64 74.8814 12.2667 74.8814 11.8L75.6214 11.88C75.6214 12.92 75.4414 13.76 75.0814 14.4C74.7347 15.04 74.2681 15.5067 73.6814 15.8C73.0947 16.08 72.4547 16.22 71.7614 16.22Z" fill="white"/>
</svg>
